<svg width="23" height="23" viewBox="0 0 23 23" fill="none" xmlns="http://www.w3.org/2000/svg">
<path d="M14.4125 22.6487H5.69238V3.02832V0.848267L8.23568 3.02832H12.2325L14.4125 0.848267V3.02832V22.6487Z" fill="#F9B233"/>
<path d="M10.0526 15.7452C11.2566 15.7452 12.2327 14.7692 12.2327 13.5652C12.2327 12.3612 11.2566 11.3851 10.0526 11.3851C8.8486 11.3851 7.87256 12.3612 7.87256 13.5652C7.87256 14.7692 8.8486 15.7452 10.0526 15.7452Z" fill="#FAD399"/>
<path d="M7.87256 3.02832L10.0526 5.57171L12.2327 3.02832H7.87256Z" fill="#FAD399"/>
<path d="M12.2324 3.39157H13.6858V1.93823C13.6858 1.93823 12.2324 3.43097 12.2324 3.39157Z" fill="#FAD399"/>
<path d="M6.41895 1.93823C6.41895 1.93823 7.87233 3.43097 7.87233 3.39162H6.41895" fill="#FAD399"/>
<path d="M11.1426 6.66162C10.7969 6.66162 10.4837 6.78731 10.2343 6.98884C9.98483 6.78731 9.67157 6.66162 9.32594 6.66162C8.52324 6.66162 7.87256 7.31231 7.87256 8.115C7.87256 8.91766 8.52324 9.56834 9.32594 9.56834C9.67162 9.56834 9.98483 9.44265 10.2343 9.24112C10.4837 9.44265 10.797 9.56834 11.1426 9.56834C11.9453 9.56834 12.596 8.91766 12.596 8.115C12.596 7.31231 11.9453 6.66162 11.1426 6.66162Z" fill="#FAD399"/>
<path d="M7.88465 15.0065H7.50928V14.3038H8.58733V22.2973H9.32599V23H7.88465V15.0065Z" fill="#1D1D1B"/>
<path d="M12.2206 15.0065H12.596V14.3038H11.518V22.2973H10.7793V23H12.2206V15.0065Z" fill="#1D1D1B"/>
<path d="M8.59927 5.22034H7.87256V5.92302H8.59927V5.22034Z" fill="#1D1D1B"/>
<path d="M12.2326 5.22034H11.5059V5.92302H12.2326V5.22034Z" fill="#1D1D1B"/>
<path d="M9.32568 7.37639H9.70101V8.47838H10.4037V7.37639H10.7791V6.67371H9.32568V7.37639Z" fill="#1D1D1B"/>
<path d="M18.0461 7.73973V7.03705H14.764V0L12.0871 2.67694H8.01802L5.34118 0V7.03705H2.05908V7.73973H5.34118V8.12705H4.23913V8.82973H5.34118V23H7.50919V22.2973H6.04386V8.82973H8.59924V8.12705H6.04386V7.73973H8.59924V7.03705H6.04386V1.69647L7.72697 3.37963H12.3782L14.0613 1.69647V7.03705H11.5059V7.73973H14.0613V8.12705H11.5059V8.82973H14.0613V22.2973H12.596V23H14.764V8.82973H15.8661V8.12705H14.764V7.73973H18.0461Z" fill="#1D1D1B"/>
<path d="M15.8659 23H15.1392V22.2973H15.8659C16.2732 22.2973 16.6046 21.9659 16.6046 21.5586V14.6551C16.6046 13.4596 17.5772 12.4871 18.7726 12.4871C19.968 12.4871 20.9406 13.4596 20.9406 14.6551H20.2379C20.2379 13.8471 19.5806 13.1897 18.7726 13.1897C17.9646 13.1897 17.3073 13.8471 17.3073 14.6551V21.5586C17.3072 22.3533 16.6606 23 15.8659 23Z" fill="#1D1D1B"/>
</svg>
